<?xml version="1.0" encoding="UTF-8"?>
<svg width="95px" height="88px" viewBox="0 0 95 88" version="1.1" xmlns="http://www.w3.org/2000/svg" xmlns:xlink="http://www.w3.org/1999/xlink">
    <title>NEXT.exchange_logo_SVG@3x</title>
    <g id="NEXT.exchange-logo" stroke="none" stroke-width="1" fill="none" fill-rule="evenodd">
        <g id="Custom-Preset" transform="translate(-633.000000, -2380.000000)" fill="#000000" fill-rule="nonzero">
            <g id="NEXT.exchange_logo_SVG" transform="translate(633.372356, 2370.276029)">
                <g id="Group" transform="translate(25.904708, 78.250164) scale(-1, 1) rotate(51.853422) translate(-25.904708, -78.250164) translate(-5.306205, 69.824152)">
                    <polygon id="Path" points="13.6400658 4.53339069e-14 62.4218246 4.53339069e-14 48.7152834 16.8520238 -1.20931175e-13 16.7702929"></polygon>
                </g>
                <g id="Group" transform="translate(27.627644, 28.723971) scale(-1, 1) translate(-27.627644, -28.723971) translate(2.627644, 10.723971)">
                    <polygon id="Path" points="28.2810389 0 50 0 21.3802933 36 0 36"></polygon>
                </g>
                <g id="Group" transform="translate(75.977712, 22.876263) scale(-1, 1) rotate(127.767559) translate(-75.977712, -22.876263) translate(63.088267, 2.161211)">
                    <polygon id="Path" points="7.43984347 -1.69102575e-13 25.7788902 -1.69102575e-13 13.8350132 41.4301039 1.72409938e-13 24.1856127"></polygon>
                </g>
                <g id="Group" transform="translate(73.375940, 83.612693) scale(-1, 1) rotate(125.913506) translate(-73.375940, -83.612693) translate(50.282543, 74.769956)">
                    <polygon id="Path" points="5.22696338 -2.4238752e-14 33.2482031 -2.4238752e-14 46.1867933 17.2564181 -9.59021097e-14 17.6854748"></polygon>
                </g>
            </g>
        </g>
    </g>
</svg>